<mxfile host="app.diagrams.net" modified="2023-01-10T09:01:47.758Z" agent="5.0 (Windows NT 10.0; Win64; x64) AppleWebKit/537.36 (KHTML, like Gecko) Chrome/92.0.4515.107 Safari/537.36" version="20.6.2" etag="1xJqHmHEYnkYvMjhelP3" type="github">
  <diagram id="sjMJaxDh5OA1RUdXa0Ho" name="第 1 页">
    <mxGraphModel dx="806" dy="490" grid="1" gridSize="10" guides="1" tooltips="1" connect="1" arrows="1" fold="1" page="1" pageScale="1" pageWidth="827" pageHeight="1169" math="0" shadow="0">
      <root>
        <mxCell id="0" />
        <mxCell id="1" parent="0" />
        <mxCell id="ipv7H-5pLFuv2ass--f2-1" value="slice 0" style="rounded=0;whiteSpace=wrap;html=1;" vertex="1" parent="1">
          <mxGeometry x="240" y="40" width="200" height="60" as="geometry" />
        </mxCell>
        <mxCell id="ipv7H-5pLFuv2ass--f2-2" value="slice 1" style="rounded=0;whiteSpace=wrap;html=1;" vertex="1" parent="1">
          <mxGeometry x="240" y="100" width="200" height="60" as="geometry" />
        </mxCell>
        <mxCell id="ipv7H-5pLFuv2ass--f2-3" value="slice 2" style="rounded=0;whiteSpace=wrap;html=1;" vertex="1" parent="1">
          <mxGeometry x="240" y="160" width="200" height="60" as="geometry" />
        </mxCell>
        <mxCell id="ipv7H-5pLFuv2ass--f2-4" value="slice 2" style="rounded=0;whiteSpace=wrap;html=1;" vertex="1" parent="1">
          <mxGeometry x="240" y="220" width="200" height="60" as="geometry" />
        </mxCell>
        <mxCell id="ipv7H-5pLFuv2ass--f2-5" value="" style="endArrow=classic;html=1;rounded=0;exitX=1;exitY=0;exitDx=0;exitDy=0;" edge="1" parent="1" source="ipv7H-5pLFuv2ass--f2-2">
          <mxGeometry width="50" height="50" relative="1" as="geometry">
            <mxPoint x="460" y="140" as="sourcePoint" />
            <mxPoint x="510" y="100" as="targetPoint" />
          </mxGeometry>
        </mxCell>
        <mxCell id="ipv7H-5pLFuv2ass--f2-7" value="text0" style="rounded=0;whiteSpace=wrap;html=1;" vertex="1" parent="1">
          <mxGeometry x="240" y="40" width="50" height="20" as="geometry" />
        </mxCell>
        <mxCell id="ipv7H-5pLFuv2ass--f2-8" value="text1" style="rounded=0;whiteSpace=wrap;html=1;" vertex="1" parent="1">
          <mxGeometry x="364" y="40" width="50" height="20" as="geometry" />
        </mxCell>
        <mxCell id="ipv7H-5pLFuv2ass--f2-9" value="text2" style="rounded=0;whiteSpace=wrap;html=1;" vertex="1" parent="1">
          <mxGeometry x="240" y="80" width="50" height="20" as="geometry" />
        </mxCell>
        <mxCell id="ipv7H-5pLFuv2ass--f2-10" value="text3" style="rounded=0;whiteSpace=wrap;html=1;" vertex="1" parent="1">
          <mxGeometry x="364" y="80" width="50" height="20" as="geometry" />
        </mxCell>
        <mxCell id="ipv7H-5pLFuv2ass--f2-11" value="" style="endArrow=classic;html=1;rounded=0;entryX=0;entryY=0;entryDx=0;entryDy=0;" edge="1" parent="1" target="ipv7H-5pLFuv2ass--f2-7">
          <mxGeometry width="50" height="50" relative="1" as="geometry">
            <mxPoint x="190" y="40" as="sourcePoint" />
            <mxPoint x="270" y="40" as="targetPoint" />
            <Array as="points" />
          </mxGeometry>
        </mxCell>
        <mxCell id="ipv7H-5pLFuv2ass--f2-12" value="slice int" style="text;html=1;strokeColor=none;fillColor=none;align=center;verticalAlign=middle;whiteSpace=wrap;rounded=0;" vertex="1" parent="1">
          <mxGeometry x="510" y="85" width="60" height="30" as="geometry" />
        </mxCell>
        <mxCell id="ipv7H-5pLFuv2ass--f2-13" value="Text" style="text;html=1;strokeColor=none;fillColor=none;align=center;verticalAlign=middle;whiteSpace=wrap;rounded=0;" vertex="1" parent="1">
          <mxGeometry x="380" y="140" width="60" height="30" as="geometry" />
        </mxCell>
        <mxCell id="ipv7H-5pLFuv2ass--f2-14" value="Text" style="text;html=1;strokeColor=none;fillColor=none;align=center;verticalAlign=middle;whiteSpace=wrap;rounded=0;" vertex="1" parent="1">
          <mxGeometry x="380" y="140" width="60" height="30" as="geometry" />
        </mxCell>
        <mxCell id="ipv7H-5pLFuv2ass--f2-15" value="slice info buffer" style="text;html=1;strokeColor=none;fillColor=none;align=center;verticalAlign=middle;whiteSpace=wrap;rounded=0;" vertex="1" parent="1">
          <mxGeometry x="130" y="30" width="60" height="30" as="geometry" />
        </mxCell>
      </root>
    </mxGraphModel>
  </diagram>
</mxfile>
